<svg width="71" height="40" fill="none" xmlns="http://www.w3.org/2000/svg"><path d="M9.254 1.543a5.394 5.394 0 00-5.398 5.398c0 4.049 5.398 10.026 5.398 10.026s5.399-5.977 5.399-10.026a5.394 5.394 0 00-5.399-5.398zM5.398 6.941a3.857 3.857 0 013.856-3.856 3.857 3.857 0 013.856 3.856c0 2.221-2.22 5.545-3.856 7.62C7.65 12.5 5.398 9.139 5.398 6.94z" fill="#259357"/><path d="M9.254 8.869a1.928 1.928 0 100-3.856 1.928 1.928 0 000 3.856zm51.89 12.504c-2.878 0-5.205 2.414-5.205 5.398 0 4.05 5.205 10.026 5.205 10.026S66.35 30.82 66.35 26.77c0-2.984-2.328-5.398-5.206-5.398zm-3.718 5.398c0-2.128 1.666-3.856 3.718-3.856 2.053 0 3.718 1.728 3.718 3.856 0 2.221-2.141 5.545-3.718 7.62-1.547-2.06-3.718-5.422-3.718-7.62z" fill="#259357"/><path d="M61.144 28.699c1.027 0 1.86-.864 1.86-1.928 0-1.065-.833-1.928-1.86-1.928-1.027 0-1.86.863-1.86 1.928 0 1.064.833 1.928 1.86 1.928z" fill="#259357"/><path d="M9.254 19.17h24.088c10.174.323 23.793 2.91-3.126 10.67-26.92 7.76-4.72 9.331 9.745 9.146h21.514" stroke="#000" stroke-width="1.3" stroke-linecap="round" stroke-dasharray="6 6"/></svg>