<svg width="13" height="22" fill="none" xmlns="http://www.w3.org/2000/svg"><path d="M7.5 4.5c1.1 0 2-.9 2-2s-.9-2-2-2-2 .9-2 2 .9 2 2 2zM3.8 7.9L1.24 20.81c-.13.61.35 1.19.98 1.19h.08c.47 0 .87-.32.98-.78L4.9 14 7 16v5c0 .55.45 1 1 1s1-.45 1-1v-5.64c0-.55-.22-1.07-.62-1.45L6.9 12.5l.6-3a7.321 7.321 0 004.36 2.41c.6.09 1.14-.39 1.14-1 0-.49-.36-.9-.85-.98-1.52-.25-2.78-1.15-3.45-2.33L7.7 6a2.145 2.145 0 00-2.65-.84L1.22 6.78A2.01 2.01 0 000 8.63V11c0 .55.45 1 1 1s1-.45 1-1V8.6l1.8-.7z" fill="#000"/></svg>