<svg width="50" height="47" fill="none" xmlns="http://www.w3.org/2000/svg"><path d="M4.97 43c1.836-2.376 3.564-5.724 5.184-10.044s2.43-8.586 2.43-12.798c0-1.296-.054-2.268-.162-2.916-1.404.648-2.754.972-4.05.972-2.16 0-3.942-.756-5.346-2.268C1.622 14.434.92 12.544.92 10.276c0-2.916.864-5.184 2.592-6.804C5.24 1.744 7.346.88 9.83.88c3.564 0 6.372 1.404 8.424 4.212 2.052 2.7 3.078 6.21 3.078 10.53 0 4.428-1.188 9.774-3.564 16.038-2.268 6.264-5.076 11.124-8.424 14.58L4.97 43zm28.512 0c1.836-2.376 3.564-5.724 5.184-10.044s2.43-8.586 2.43-12.798c0-1.296-.054-2.268-.162-2.916-1.404.648-2.754.972-4.05.972-2.16 0-3.942-.756-5.346-2.268-1.404-1.512-2.106-3.402-2.106-5.67 0-2.916.864-5.184 2.592-6.804C33.752 1.744 35.858.88 38.342.88c3.564 0 6.372 1.404 8.424 4.212 2.052 2.7 3.078 6.21 3.078 10.53 0 4.428-1.188 9.774-3.564 16.038-2.268 6.264-5.076 11.124-8.424 14.58L33.482 43z" fill="#259357"/></svg>