<svg width="50" height="47" fill="none" xmlns="http://www.w3.org/2000/svg"><path d="M16.814 4.12c-1.836 2.376-3.564 5.724-5.184 10.044S9.2 22.75 9.2 26.962c0 1.296.054 2.268.162 2.916 1.404-.648 2.754-.972 4.05-.972 2.16 0 3.942.756 5.346 2.268 1.404 1.512 2.106 3.402 2.106 5.67 0 2.916-.864 5.238-2.592 6.966-1.728 1.62-3.834 2.43-6.318 2.43-3.564 0-6.372-1.35-8.424-4.05C1.478 39.382.452 35.818.452 31.498c0-4.428 1.134-9.774 3.402-16.038C6.23 9.196 9.092 4.336 12.44.88l4.374 3.24zm28.512 0c-1.836 2.376-3.564 5.724-5.184 10.044s-2.43 8.586-2.43 12.798c0 1.296.054 2.268.162 2.916 1.404-.648 2.754-.972 4.05-.972 2.16 0 3.942.756 5.346 2.268 1.404 1.512 2.106 3.402 2.106 5.67 0 2.916-.864 5.238-2.592 6.966-1.728 1.62-3.834 2.43-6.318 2.43-3.564 0-6.372-1.35-8.424-4.05-2.052-2.808-3.078-6.372-3.078-10.692 0-4.428 1.134-9.774 3.402-16.038C34.742 9.196 37.604 4.336 40.952.88l4.374 3.24z" fill="#259357"/></svg>