<svg width="20" height="16" viewBox="0 0 20 16" fill="none" xmlns="http://www.w3.org/2000/svg">
<path d="M17.9999 0H1.99991C0.899909 0 0.00990844 0.9 0.00990844 2L-9.15527e-05 14C-9.15527e-05 15.1 0.899909 16 1.99991 16H17.9999C19.0999 16 19.9999 15.1 19.9999 14V2C19.9999 0.9 19.0999 0 17.9999 0ZM16.9999 14H2.99991C2.44991 14 1.99991 13.55 1.99991 13V4L8.93991 8.34C9.58991 8.75 10.4099 8.75 11.0599 8.34L17.9999 4V13C17.9999 13.55 17.5499 14 16.9999 14ZM9.99991 7L1.99991 2H17.9999L9.99991 7Z" fill="white"/>
</svg>
