<svg width="18" height="18" viewBox="0 0 18 18" fill="none" xmlns="http://www.w3.org/2000/svg">
<path d="M16.23 12.2598L13.69 11.9698C13.08 11.8998 12.48 12.1098 12.05 12.5398L10.21 14.3798C7.37998 12.9398 5.05998 10.6298 3.61998 7.78977L5.46998 5.93976C5.89998 5.50977 6.10998 4.90977 6.03998 4.29977L5.74998 1.77977C5.62998 0.769766 4.77998 0.00976562 3.75998 0.00976562H2.02998C0.89998 0.00976562 -0.0400204 0.949766 0.0299796 2.07977C0.55998 10.6198 7.38998 17.4398 15.92 17.9698C17.05 18.0398 17.99 17.0998 17.99 15.9698V14.2398C18 13.2298 17.24 12.3798 16.23 12.2598Z" fill="#259357"/>
</svg>
