<svg width="53" height="53" viewBox="0 0 53 53" fill="none" xmlns="http://www.w3.org/2000/svg">
<path d="M26.5002 4.41699C17.954 4.41699 11.0419 11.3291 11.0419 19.8753C11.0419 31.4691 26.5002 48.5837 26.5002 48.5837C26.5002 48.5837 41.9585 31.4691 41.9585 19.8753C41.9585 11.3291 35.0465 4.41699 26.5002 4.41699ZM15.4585 19.8753C15.4585 13.7803 20.4052 8.83366 26.5002 8.83366C32.5952 8.83366 37.5419 13.7803 37.5419 19.8753C37.5419 26.2353 31.1819 35.7532 26.5002 41.6937C21.9069 35.7974 15.4585 26.1691 15.4585 19.8753Z" fill="#259357"/>
<path d="M26.5002 25.3962C29.5493 25.3962 32.021 22.9244 32.021 19.8753C32.021 16.8263 29.5493 14.3545 26.5002 14.3545C23.4511 14.3545 20.9794 16.8263 20.9794 19.8753C20.9794 22.9244 23.4511 25.3962 26.5002 25.3962Z" fill="#259357"/>
</svg>
