<svg width="71" height="40" viewBox="0 0 71 40" fill="none" xmlns="http://www.w3.org/2000/svg">
<path d="M9.25435 1.54297C6.26986 1.54297 3.85605 3.95678 3.85605 6.94127C3.85605 10.99 9.25435 16.9667 9.25435 16.9667C9.25435 16.9667 14.6527 10.99 14.6527 6.94127C14.6527 3.95678 12.2388 1.54297 9.25435 1.54297ZM5.39842 6.94127C5.39842 4.8128 7.12588 3.08534 9.25435 3.08534C11.3828 3.08534 13.1103 4.8128 13.1103 6.94127C13.1103 9.16229 10.8893 12.4861 9.25435 14.5606C7.65029 12.5015 5.39842 9.13916 5.39842 6.94127Z" fill="#259357"/>
<path d="M9.25435 8.86863C10.3191 8.86863 11.1823 8.00545 11.1823 6.94066C11.1823 5.87588 10.3191 5.0127 9.25435 5.0127C8.18957 5.0127 7.32639 5.87588 7.32639 6.94066C7.32639 8.00545 8.18957 8.86863 9.25435 8.86863Z" fill="#259357"/>
<path d="M61.1441 21.373C58.2662 21.373 55.9386 23.7869 55.9386 26.7714C55.9386 30.8201 61.1441 36.7968 61.1441 36.7968C61.1441 36.7968 66.3496 30.8201 66.3496 26.7714C66.3496 23.7869 64.022 21.373 61.1441 21.373ZM57.4259 26.7714C57.4259 24.6429 59.0916 22.9154 61.1441 22.9154C63.1965 22.9154 64.8623 24.6429 64.8623 26.7714C64.8623 28.9924 62.7206 32.3162 61.1441 34.3907C59.5973 32.3316 57.4259 28.9692 57.4259 26.7714Z" fill="#259357"/>
<path d="M61.1441 28.6987C62.1708 28.6987 63.0032 27.8355 63.0032 26.7707C63.0032 25.706 62.1708 24.8428 61.1441 24.8428C60.1173 24.8428 59.2849 25.706 59.2849 26.7707C59.2849 27.8355 60.1173 28.6987 61.1441 28.6987Z" fill="#259357"/>
<path d="M9.25424 19.1699H33.3418C43.5162 19.4933 57.1351 22.08 30.2159 29.8404C3.29671 37.6007 25.4965 39.1712 39.9613 38.9864H61.4746" stroke="black" stroke-width="1.3" stroke-linecap="round" stroke-dasharray="6 6"/>
</svg>
