<svg width="18" height="18" viewBox="0 0 18 18" fill="none" xmlns="http://www.w3.org/2000/svg">
<path d="M16.23 12.2598L13.69 11.9698C13.08 11.8998 12.48 12.1098 12.05 12.5398L10.21 14.3798C7.38001 12.9398 5.06001 10.6298 3.62001 7.78977L5.47001 5.93976C5.90001 5.50977 6.11001 4.90977 6.04001 4.29977L5.75001 1.77977C5.63001 0.769766 4.78001 0.00976562 3.76001 0.00976562H2.03001C0.90001 0.00976562 -0.0399899 0.949766 0.0300101 2.07977C0.56001 10.6198 7.39001 17.4398 15.92 17.9698C17.05 18.0398 17.99 17.0998 17.99 15.9698V14.2398C18 13.2298 17.24 12.3798 16.23 12.2598Z" fill="white"/>
</svg>
