<svg width="50" height="47" viewBox="0 0 50 47" fill="none" xmlns="http://www.w3.org/2000/svg">
<path d="M4.97012 43C6.80612 40.624 8.53412 37.276 10.1541 32.956C11.7741 28.636 12.5841 24.37 12.5841 20.158C12.5841 18.862 12.5301 17.89 12.4221 17.242C11.0181 17.89 9.66812 18.214 8.37212 18.214C6.21212 18.214 4.43012 17.458 3.02612 15.946C1.62212 14.434 0.920117 12.544 0.920117 10.276C0.920117 7.36 1.78412 5.092 3.51212 3.472C5.24012 1.74399 7.34612 0.879992 9.83012 0.879992C13.3941 0.879992 16.2021 2.28399 18.2541 5.092C20.3061 7.79199 21.3321 11.302 21.3321 15.622C21.3321 20.05 20.1441 25.396 17.7681 31.66C15.5001 37.924 12.6921 42.784 9.34412 46.24L4.97012 43ZM33.4821 43C35.3181 40.624 37.0461 37.276 38.6661 32.956C40.2861 28.636 41.0961 24.37 41.0961 20.158C41.0961 18.862 41.0421 17.89 40.9341 17.242C39.5301 17.89 38.1801 18.214 36.8841 18.214C34.7241 18.214 32.9421 17.458 31.5381 15.946C30.1341 14.434 29.4321 12.544 29.4321 10.276C29.4321 7.36 30.2961 5.092 32.0241 3.472C33.7521 1.74399 35.8581 0.879992 38.3421 0.879992C41.9061 0.879992 44.7141 2.28399 46.7661 5.092C48.8181 7.79199 49.8441 11.302 49.8441 15.622C49.8441 20.05 48.6561 25.396 46.2801 31.66C44.0121 37.924 41.2041 42.784 37.8561 46.24L33.4821 43Z" fill="#259357"/>
</svg>
