<svg width="50" height="47" viewBox="0 0 50 47" fill="none" xmlns="http://www.w3.org/2000/svg">
<path d="M16.814 4.12C14.978 6.49599 13.25 9.84399 11.63 14.164C10.01 18.484 9.2 22.75 9.2 26.962C9.2 28.258 9.254 29.23 9.362 29.878C10.766 29.23 12.116 28.906 13.412 28.906C15.572 28.906 17.354 29.662 18.758 31.174C20.162 32.686 20.864 34.576 20.864 36.844C20.864 39.76 20 42.082 18.272 43.81C16.544 45.43 14.438 46.24 11.954 46.24C8.39 46.24 5.582 44.89 3.53 42.19C1.478 39.382 0.452001 35.818 0.452001 31.498C0.452001 27.07 1.586 21.724 3.854 15.46C6.23 9.19599 9.092 4.33599 12.44 0.879992L16.814 4.12ZM45.326 4.12C43.49 6.49599 41.762 9.84399 40.142 14.164C38.522 18.484 37.712 22.75 37.712 26.962C37.712 28.258 37.766 29.23 37.874 29.878C39.278 29.23 40.628 28.906 41.924 28.906C44.084 28.906 45.866 29.662 47.27 31.174C48.674 32.686 49.376 34.576 49.376 36.844C49.376 39.76 48.512 42.082 46.784 43.81C45.056 45.43 42.95 46.24 40.466 46.24C36.902 46.24 34.094 44.89 32.042 42.19C29.99 39.382 28.964 35.818 28.964 31.498C28.964 27.07 30.098 21.724 32.366 15.46C34.742 9.19599 37.604 4.33599 40.952 0.879992L45.326 4.12Z" fill="#259357"/>
</svg>
